<svg width="22" height="28" viewBox="0 0 22 28" fill="none" xmlns="http://www.w3.org/2000/svg">
<path d="M10.6458 16.8062H10.6423V23.4838H10.6458V16.8062Z" fill="#01D370"/>
<path d="M10.6458 16.8062H10.6423V23.4838H10.6458V16.8062Z" fill="#01D370"/>
<path d="M10.1018 13.3899L3.4864 16.5498C3.28997 16.6454 3.1637 16.8509 3.1637 17.0741V23.2097C3.1637 23.4364 3.28997 23.6384 3.4864 23.734L10.1053 26.8975C10.2736 26.9789 10.456 27.0179 10.6384 27.0179V13.2659C10.456 13.2694 10.2736 13.3119 10.1018 13.3899Z" fill="#00FF86"/>
<path d="M10.3475 0.0708492L7.24322 1.62247V5.79201L3.60933 7.59161V3.38664L0.35427 5.01974C0.136798 5.12956 0 5.35274 0 5.59363V13.6281C0 14.0992 0.494573 14.4109 0.911979 14.2019L10.0774 9.66043C10.2563 9.57187 10.4492 9.52936 10.6421 9.52936V0C10.5404 0 10.4387 0.0247965 10.3475 0.0708492Z" fill="#00FF86"/>
<path d="M17.7978 16.5516L11.1789 13.3917C11.0071 13.3066 10.8247 13.2677 10.6423 13.2712V27.0233C10.8247 27.0233 11.0141 26.9843 11.1824 26.9028L17.7978 23.7394C17.9942 23.6437 18.1205 23.4382 18.1205 23.2151V17.0794C18.1205 16.8527 17.9942 16.6472 17.7978 16.5516Z" fill="#01D370"/>
<path d="M20.9336 5.01877L17.6785 3.38567V7.59418L14.0412 5.79458V1.62504L10.9369 0.0734127C10.8457 0.02736 10.7405 0.00256348 10.6423 0.00256348V9.53193C10.8352 9.53193 11.0281 9.57798 11.207 9.663L20.3724 14.2045C20.7933 14.4135 21.2844 14.1018 21.2844 13.6306V5.59619C21.2879 5.35176 21.1511 5.12858 20.9336 5.01877Z" fill="#01D370"/>
</svg>
